<mxfile host="app.diagrams.net" agent="Mozilla/5.0 (Windows NT 10.0; Win64; x64) AppleWebKit/537.36 (KHTML, like Gecko) Chrome/134.0.0.0 Safari/537.36 Edg/134.0.0.0" version="26.1.3">
  <diagram id="C5RBs43oDa-KdzZeNtuy" name="Page-1">
    <mxGraphModel dx="2852" dy="2731" grid="1" gridSize="10" guides="1" tooltips="1" connect="1" arrows="1" fold="1" page="1" pageScale="1" pageWidth="827" pageHeight="1169" math="0" shadow="0">
      <root>
        <mxCell id="WIyWlLk6GJQsqaUBKTNV-0" />
        <mxCell id="WIyWlLk6GJQsqaUBKTNV-1" parent="WIyWlLk6GJQsqaUBKTNV-0" />
        <mxCell id="GD3txWQQ8H-0cnb2r7v--4" value="" style="rounded=0;whiteSpace=wrap;html=1;" parent="WIyWlLk6GJQsqaUBKTNV-1" vertex="1">
          <mxGeometry x="20" y="430" width="1410" height="480" as="geometry" />
        </mxCell>
        <mxCell id="GD3txWQQ8H-0cnb2r7v--1" value="" style="rounded=0;whiteSpace=wrap;html=1;" parent="WIyWlLk6GJQsqaUBKTNV-1" vertex="1">
          <mxGeometry x="20" y="-160" width="1410" height="590" as="geometry" />
        </mxCell>
        <mxCell id="dsEDK1jfOFi2LN3uVr38-22" value="ApplicationUser" style="swimlane;fontStyle=1;align=center;verticalAlign=top;childLayout=stackLayout;horizontal=1;startSize=26;horizontalStack=0;resizeParent=1;resizeParentMax=0;resizeLast=0;collapsible=1;marginBottom=0;whiteSpace=wrap;html=1;" parent="WIyWlLk6GJQsqaUBKTNV-1" vertex="1">
          <mxGeometry x="520" y="110" width="240" height="138" as="geometry" />
        </mxCell>
        <mxCell id="dsEDK1jfOFi2LN3uVr38-23" value="FirstName: string" style="text;strokeColor=none;fillColor=none;align=left;verticalAlign=top;spacingLeft=4;spacingRight=4;overflow=hidden;rotatable=0;points=[[0,0.5],[1,0.5]];portConstraint=eastwest;whiteSpace=wrap;html=1;" parent="dsEDK1jfOFi2LN3uVr38-22" vertex="1">
          <mxGeometry y="26" width="240" height="26" as="geometry" />
        </mxCell>
        <mxCell id="dsEDK1jfOFi2LN3uVr38-26" value="LastName: string" style="text;strokeColor=none;fillColor=none;align=left;verticalAlign=top;spacingLeft=4;spacingRight=4;overflow=hidden;rotatable=0;points=[[0,0.5],[1,0.5]];portConstraint=eastwest;whiteSpace=wrap;html=1;" parent="dsEDK1jfOFi2LN3uVr38-22" vertex="1">
          <mxGeometry y="52" width="240" height="26" as="geometry" />
        </mxCell>
        <mxCell id="dsEDK1jfOFi2LN3uVr38-38" value="ClusteringReports: List&amp;lt;Clustering Report&amp;gt;" style="text;strokeColor=none;fillColor=none;align=left;verticalAlign=top;spacingLeft=4;spacingRight=4;overflow=hidden;rotatable=0;points=[[0,0.5],[1,0.5]];portConstraint=eastwest;whiteSpace=wrap;html=1;" parent="dsEDK1jfOFi2LN3uVr38-22" vertex="1">
          <mxGeometry y="78" width="240" height="26" as="geometry" />
        </mxCell>
        <mxCell id="dsEDK1jfOFi2LN3uVr38-24" value="" style="line;strokeWidth=1;fillColor=none;align=left;verticalAlign=middle;spacingTop=-1;spacingLeft=3;spacingRight=3;rotatable=0;labelPosition=right;points=[];portConstraint=eastwest;strokeColor=inherit;" parent="dsEDK1jfOFi2LN3uVr38-22" vertex="1">
          <mxGeometry y="104" width="240" height="8" as="geometry" />
        </mxCell>
        <mxCell id="dsEDK1jfOFi2LN3uVr38-25" value="+ method(type): type" style="text;strokeColor=none;fillColor=none;align=left;verticalAlign=top;spacingLeft=4;spacingRight=4;overflow=hidden;rotatable=0;points=[[0,0.5],[1,0.5]];portConstraint=eastwest;whiteSpace=wrap;html=1;" parent="dsEDK1jfOFi2LN3uVr38-22" vertex="1">
          <mxGeometry y="112" width="240" height="26" as="geometry" />
        </mxCell>
        <mxCell id="dsEDK1jfOFi2LN3uVr38-37" value="" style="endArrow=block;startArrow=block;endFill=1;startFill=1;html=1;rounded=0;" parent="WIyWlLk6GJQsqaUBKTNV-1" source="dsEDK1jfOFi2LN3uVr38-38" target="dsEDK1jfOFi2LN3uVr38-35" edge="1">
          <mxGeometry width="160" relative="1" as="geometry">
            <mxPoint x="270" y="145.5" as="sourcePoint" />
            <mxPoint x="430" y="145.5" as="targetPoint" />
          </mxGeometry>
        </mxCell>
        <mxCell id="dsEDK1jfOFi2LN3uVr38-48" value="*" style="edgeLabel;html=1;align=center;verticalAlign=middle;resizable=0;points=[];" parent="dsEDK1jfOFi2LN3uVr38-37" vertex="1" connectable="0">
          <mxGeometry x="0.6667" y="-2" relative="1" as="geometry">
            <mxPoint x="-1" y="-16" as="offset" />
          </mxGeometry>
        </mxCell>
        <mxCell id="dsEDK1jfOFi2LN3uVr38-49" value="1" style="edgeLabel;html=1;align=center;verticalAlign=middle;resizable=0;points=[];" parent="dsEDK1jfOFi2LN3uVr38-37" vertex="1" connectable="0">
          <mxGeometry x="-0.8" relative="1" as="geometry">
            <mxPoint x="7" y="-14" as="offset" />
          </mxGeometry>
        </mxCell>
        <mxCell id="dsEDK1jfOFi2LN3uVr38-53" value="ClusteringReportParameter" style="swimlane;fontStyle=1;align=center;verticalAlign=top;childLayout=stackLayout;horizontal=1;startSize=26;horizontalStack=0;resizeParent=1;resizeParentMax=0;resizeLast=0;collapsible=1;marginBottom=0;whiteSpace=wrap;html=1;" parent="WIyWlLk6GJQsqaUBKTNV-1" vertex="1">
          <mxGeometry x="850" y="-150" width="330" height="190" as="geometry" />
        </mxCell>
        <mxCell id="dsEDK1jfOFi2LN3uVr38-69" value="ClusteringReportParameterId: int (PK)" style="text;strokeColor=none;fillColor=none;align=left;verticalAlign=top;spacingLeft=4;spacingRight=4;overflow=hidden;rotatable=0;points=[[0,0.5],[1,0.5]];portConstraint=eastwest;whiteSpace=wrap;html=1;" parent="dsEDK1jfOFi2LN3uVr38-53" vertex="1">
          <mxGeometry y="26" width="330" height="26" as="geometry" />
        </mxCell>
        <mxCell id="dsEDK1jfOFi2LN3uVr38-54" value="ClusteringReportId: string (FK)" style="text;strokeColor=none;fillColor=none;align=left;verticalAlign=top;spacingLeft=4;spacingRight=4;overflow=hidden;rotatable=0;points=[[0,0.5],[1,0.5]];portConstraint=eastwest;whiteSpace=wrap;html=1;" parent="dsEDK1jfOFi2LN3uVr38-53" vertex="1">
          <mxGeometry y="52" width="330" height="26" as="geometry" />
        </mxCell>
        <mxCell id="dsEDK1jfOFi2LN3uVr38-59" value="ClusteringReport: ClusteringReport (navigation property)" style="text;strokeColor=none;fillColor=none;align=left;verticalAlign=top;spacingLeft=4;spacingRight=4;overflow=hidden;rotatable=0;points=[[0,0.5],[1,0.5]];portConstraint=eastwest;whiteSpace=wrap;html=1;" parent="dsEDK1jfOFi2LN3uVr38-53" vertex="1">
          <mxGeometry y="78" width="330" height="26" as="geometry" />
        </mxCell>
        <mxCell id="dsEDK1jfOFi2LN3uVr38-65" value="ParameterName: string" style="text;strokeColor=none;fillColor=none;align=left;verticalAlign=top;spacingLeft=4;spacingRight=4;overflow=hidden;rotatable=0;points=[[0,0.5],[1,0.5]];portConstraint=eastwest;whiteSpace=wrap;html=1;" parent="dsEDK1jfOFi2LN3uVr38-53" vertex="1">
          <mxGeometry y="104" width="330" height="26" as="geometry" />
        </mxCell>
        <mxCell id="dsEDK1jfOFi2LN3uVr38-60" value="ParameterValue: string&lt;div&gt;&lt;br&gt;&lt;/div&gt;" style="text;strokeColor=none;fillColor=none;align=left;verticalAlign=top;spacingLeft=4;spacingRight=4;overflow=hidden;rotatable=0;points=[[0,0.5],[1,0.5]];portConstraint=eastwest;whiteSpace=wrap;html=1;" parent="dsEDK1jfOFi2LN3uVr38-53" vertex="1">
          <mxGeometry y="130" width="330" height="26" as="geometry" />
        </mxCell>
        <mxCell id="dsEDK1jfOFi2LN3uVr38-62" value="" style="line;strokeWidth=1;fillColor=none;align=left;verticalAlign=middle;spacingTop=-1;spacingLeft=3;spacingRight=3;rotatable=0;labelPosition=right;points=[];portConstraint=eastwest;strokeColor=inherit;" parent="dsEDK1jfOFi2LN3uVr38-53" vertex="1">
          <mxGeometry y="156" width="330" height="8" as="geometry" />
        </mxCell>
        <mxCell id="dsEDK1jfOFi2LN3uVr38-63" value="+ method(type): type" style="text;strokeColor=none;fillColor=none;align=left;verticalAlign=top;spacingLeft=4;spacingRight=4;overflow=hidden;rotatable=0;points=[[0,0.5],[1,0.5]];portConstraint=eastwest;whiteSpace=wrap;html=1;" parent="dsEDK1jfOFi2LN3uVr38-53" vertex="1">
          <mxGeometry y="164" width="330" height="26" as="geometry" />
        </mxCell>
        <mxCell id="GD3txWQQ8H-0cnb2r7v--3" value="C#" style="text;html=1;align=center;verticalAlign=middle;whiteSpace=wrap;rounded=0;fontSize=24;fontStyle=1" parent="WIyWlLk6GJQsqaUBKTNV-1" vertex="1">
          <mxGeometry x="20" y="-160" width="70" height="50" as="geometry" />
        </mxCell>
        <mxCell id="GD3txWQQ8H-0cnb2r7v--5" value="Python" style="text;html=1;align=center;verticalAlign=middle;whiteSpace=wrap;rounded=0;fontStyle=1;fontSize=24;" parent="WIyWlLk6GJQsqaUBKTNV-1" vertex="1">
          <mxGeometry x="20" y="430" width="90" height="40" as="geometry" />
        </mxCell>
        <mxCell id="GD3txWQQ8H-0cnb2r7v--8" value="Use" style="endArrow=open;endSize=12;dashed=1;html=1;rounded=0;" parent="WIyWlLk6GJQsqaUBKTNV-1" source="TJTiLM4mvF0fIbGB1GxX-24" edge="1" target="TJTiLM4mvF0fIbGB1GxX-6">
          <mxGeometry width="160" relative="1" as="geometry">
            <mxPoint x="640" y="701.3440860215051" as="sourcePoint" />
            <mxPoint x="420" y="710" as="targetPoint" />
          </mxGeometry>
        </mxCell>
        <mxCell id="dsEDK1jfOFi2LN3uVr38-27" value="ClusteringReport" style="swimlane;fontStyle=1;align=center;verticalAlign=top;childLayout=stackLayout;horizontal=1;startSize=26;horizontalStack=0;resizeParent=1;resizeParentMax=0;resizeLast=0;collapsible=1;marginBottom=0;whiteSpace=wrap;html=1;" parent="WIyWlLk6GJQsqaUBKTNV-1" vertex="1">
          <mxGeometry x="850" y="110" width="330" height="296" as="geometry" />
        </mxCell>
        <mxCell id="dsEDK1jfOFi2LN3uVr38-43" value="ClusteringReportId: string (PK)" style="text;strokeColor=none;fillColor=none;align=left;verticalAlign=top;spacingLeft=4;spacingRight=4;overflow=hidden;rotatable=0;points=[[0,0.5],[1,0.5]];portConstraint=eastwest;whiteSpace=wrap;html=1;" parent="dsEDK1jfOFi2LN3uVr38-27" vertex="1">
          <mxGeometry y="26" width="330" height="26" as="geometry" />
        </mxCell>
        <mxCell id="dsEDK1jfOFi2LN3uVr38-32" value="UserId: string (FK)" style="text;strokeColor=none;fillColor=none;align=left;verticalAlign=top;spacingLeft=4;spacingRight=4;overflow=hidden;rotatable=0;points=[[0,0.5],[1,0.5]];portConstraint=eastwest;whiteSpace=wrap;html=1;" parent="dsEDK1jfOFi2LN3uVr38-27" vertex="1">
          <mxGeometry y="52" width="330" height="26" as="geometry" />
        </mxCell>
        <mxCell id="dsEDK1jfOFi2LN3uVr38-35" value="User: ApplicationUser (navigation property)" style="text;strokeColor=none;fillColor=none;align=left;verticalAlign=top;spacingLeft=4;spacingRight=4;overflow=hidden;rotatable=0;points=[[0,0.5],[1,0.5]];portConstraint=eastwest;whiteSpace=wrap;html=1;" parent="dsEDK1jfOFi2LN3uVr38-27" vertex="1">
          <mxGeometry y="78" width="330" height="28" as="geometry" />
        </mxCell>
        <mxCell id="dsEDK1jfOFi2LN3uVr38-29" value="DateGenerated: DateTime" style="text;strokeColor=none;fillColor=none;align=left;verticalAlign=top;spacingLeft=4;spacingRight=4;overflow=hidden;rotatable=0;points=[[0,0.5],[1,0.5]];portConstraint=eastwest;whiteSpace=wrap;html=1;" parent="dsEDK1jfOFi2LN3uVr38-27" vertex="1">
          <mxGeometry y="106" width="330" height="26" as="geometry" />
        </mxCell>
        <mxCell id="dsEDK1jfOFi2LN3uVr38-28" value="InputCsvName: string" style="text;strokeColor=none;fillColor=none;align=left;verticalAlign=top;spacingLeft=4;spacingRight=4;overflow=hidden;rotatable=0;points=[[0,0.5],[1,0.5]];portConstraint=eastwest;whiteSpace=wrap;html=1;" parent="dsEDK1jfOFi2LN3uVr38-27" vertex="1">
          <mxGeometry y="132" width="330" height="26" as="geometry" />
        </mxCell>
        <mxCell id="dsEDK1jfOFi2LN3uVr38-42" value="- _resultFilePath: string" style="text;strokeColor=none;fillColor=none;align=left;verticalAlign=top;spacingLeft=4;spacingRight=4;overflow=hidden;rotatable=0;points=[[0,0.5],[1,0.5]];portConstraint=eastwest;whiteSpace=wrap;html=1;" parent="dsEDK1jfOFi2LN3uVr38-27" vertex="1">
          <mxGeometry y="158" width="330" height="26" as="geometry" />
        </mxCell>
        <mxCell id="dsEDK1jfOFi2LN3uVr38-51" value="ClusteringMethod: string&lt;div&gt;&lt;br&gt;&lt;/div&gt;" style="text;strokeColor=none;fillColor=none;align=left;verticalAlign=top;spacingLeft=4;spacingRight=4;overflow=hidden;rotatable=0;points=[[0,0.5],[1,0.5]];portConstraint=eastwest;whiteSpace=wrap;html=1;" parent="dsEDK1jfOFi2LN3uVr38-27" vertex="1">
          <mxGeometry y="184" width="330" height="26" as="geometry" />
        </mxCell>
        <mxCell id="dsEDK1jfOFi2LN3uVr38-52" value="Parameters: List&amp;lt;Parameter&amp;gt;&lt;div&gt;&lt;br&gt;&lt;/div&gt;" style="text;strokeColor=none;fillColor=none;align=left;verticalAlign=top;spacingLeft=4;spacingRight=4;overflow=hidden;rotatable=0;points=[[0,0.5],[1,0.5]];portConstraint=eastwest;whiteSpace=wrap;html=1;" parent="dsEDK1jfOFi2LN3uVr38-27" vertex="1">
          <mxGeometry y="210" width="330" height="26" as="geometry" />
        </mxCell>
        <mxCell id="dsEDK1jfOFi2LN3uVr38-30" value="" style="line;strokeWidth=1;fillColor=none;align=left;verticalAlign=middle;spacingTop=-1;spacingLeft=3;spacingRight=3;rotatable=0;labelPosition=right;points=[];portConstraint=eastwest;strokeColor=inherit;" parent="dsEDK1jfOFi2LN3uVr38-27" vertex="1">
          <mxGeometry y="236" width="330" height="8" as="geometry" />
        </mxCell>
        <mxCell id="dsEDK1jfOFi2LN3uVr38-44" value="GetDiagramIframePath&lt;span style=&quot;background-color: transparent; color: light-dark(rgb(0, 0, 0), rgb(255, 255, 255));&quot;&gt;(): string&lt;/span&gt;" style="text;strokeColor=none;fillColor=none;align=left;verticalAlign=top;spacingLeft=4;spacingRight=4;overflow=hidden;rotatable=0;points=[[0,0.5],[1,0.5]];portConstraint=eastwest;whiteSpace=wrap;html=1;" parent="dsEDK1jfOFi2LN3uVr38-27" vertex="1">
          <mxGeometry y="244" width="330" height="26" as="geometry" />
        </mxCell>
        <mxCell id="dsEDK1jfOFi2LN3uVr38-31" value="GetAiResultSummary(): string" style="text;strokeColor=none;fillColor=none;align=left;verticalAlign=top;spacingLeft=4;spacingRight=4;overflow=hidden;rotatable=0;points=[[0,0.5],[1,0.5]];portConstraint=eastwest;whiteSpace=wrap;html=1;" parent="dsEDK1jfOFi2LN3uVr38-27" vertex="1">
          <mxGeometry y="270" width="330" height="26" as="geometry" />
        </mxCell>
        <mxCell id="dsEDK1jfOFi2LN3uVr38-66" value="" style="endArrow=block;startArrow=block;endFill=1;startFill=1;html=1;rounded=0;" parent="WIyWlLk6GJQsqaUBKTNV-1" source="dsEDK1jfOFi2LN3uVr38-27" target="dsEDK1jfOFi2LN3uVr38-53" edge="1">
          <mxGeometry width="160" relative="1" as="geometry">
            <mxPoint x="295" y="282" as="sourcePoint" />
            <mxPoint x="375" y="281.5" as="targetPoint" />
          </mxGeometry>
        </mxCell>
        <mxCell id="dsEDK1jfOFi2LN3uVr38-67" value="*" style="edgeLabel;html=1;align=center;verticalAlign=middle;resizable=0;points=[];" parent="dsEDK1jfOFi2LN3uVr38-66" vertex="1" connectable="0">
          <mxGeometry x="0.6667" y="-2" relative="1" as="geometry">
            <mxPoint x="-1" y="-16" as="offset" />
          </mxGeometry>
        </mxCell>
        <mxCell id="dsEDK1jfOFi2LN3uVr38-68" value="1" style="edgeLabel;html=1;align=center;verticalAlign=middle;resizable=0;points=[];" parent="dsEDK1jfOFi2LN3uVr38-66" vertex="1" connectable="0">
          <mxGeometry x="-0.8" relative="1" as="geometry">
            <mxPoint x="7" y="-14" as="offset" />
          </mxGeometry>
        </mxCell>
        <mxCell id="GD3txWQQ8H-0cnb2r7v--22" value="fastAPI" style="swimlane;fontStyle=1;align=center;verticalAlign=top;childLayout=stackLayout;horizontal=1;startSize=26;horizontalStack=0;resizeParent=1;resizeParentMax=0;resizeLast=0;collapsible=1;marginBottom=0;whiteSpace=wrap;html=1;" parent="WIyWlLk6GJQsqaUBKTNV-1" vertex="1">
          <mxGeometry x="1020" y="543" width="380" height="320" as="geometry" />
        </mxCell>
        <mxCell id="GD3txWQQ8H-0cnb2r7v--23" value="+ volume_based_path : path" style="text;strokeColor=none;fillColor=none;align=left;verticalAlign=top;spacingLeft=4;spacingRight=4;overflow=hidden;rotatable=0;points=[[0,0.5],[1,0.5]];portConstraint=eastwest;whiteSpace=wrap;html=1;" parent="GD3txWQQ8H-0cnb2r7v--22" vertex="1">
          <mxGeometry y="26" width="380" height="26" as="geometry" />
        </mxCell>
        <mxCell id="TJTiLM4mvF0fIbGB1GxX-0" value="+ output_path : path" style="text;strokeColor=none;fillColor=none;align=left;verticalAlign=top;spacingLeft=4;spacingRight=4;overflow=hidden;rotatable=0;points=[[0,0.5],[1,0.5]];portConstraint=eastwest;whiteSpace=wrap;html=1;" vertex="1" parent="GD3txWQQ8H-0cnb2r7v--22">
          <mxGeometry y="52" width="380" height="26" as="geometry" />
        </mxCell>
        <mxCell id="TJTiLM4mvF0fIbGB1GxX-4" value="+ logger : logger" style="text;strokeColor=none;fillColor=none;align=left;verticalAlign=top;spacingLeft=4;spacingRight=4;overflow=hidden;rotatable=0;points=[[0,0.5],[1,0.5]];portConstraint=eastwest;whiteSpace=wrap;html=1;" vertex="1" parent="GD3txWQQ8H-0cnb2r7v--22">
          <mxGeometry y="78" width="380" height="26" as="geometry" />
        </mxCell>
        <mxCell id="TJTiLM4mvF0fIbGB1GxX-5" value="+ app : FastAPI()" style="text;strokeColor=none;fillColor=none;align=left;verticalAlign=top;spacingLeft=4;spacingRight=4;overflow=hidden;rotatable=0;points=[[0,0.5],[1,0.5]];portConstraint=eastwest;whiteSpace=wrap;html=1;" vertex="1" parent="GD3txWQQ8H-0cnb2r7v--22">
          <mxGeometry y="104" width="380" height="26" as="geometry" />
        </mxCell>
        <mxCell id="TJTiLM4mvF0fIbGB1GxX-40" value="+ task_queue : Queue" style="text;strokeColor=none;fillColor=none;align=left;verticalAlign=top;spacingLeft=4;spacingRight=4;overflow=hidden;rotatable=0;points=[[0,0.5],[1,0.5]];portConstraint=eastwest;whiteSpace=wrap;html=1;" vertex="1" parent="GD3txWQQ8H-0cnb2r7v--22">
          <mxGeometry y="130" width="380" height="26" as="geometry" />
        </mxCell>
        <mxCell id="TJTiLM4mvF0fIbGB1GxX-39" value="+ task_results : Dictionary" style="text;strokeColor=none;fillColor=none;align=left;verticalAlign=top;spacingLeft=4;spacingRight=4;overflow=hidden;rotatable=0;points=[[0,0.5],[1,0.5]];portConstraint=eastwest;whiteSpace=wrap;html=1;" vertex="1" parent="GD3txWQQ8H-0cnb2r7v--22">
          <mxGeometry y="156" width="380" height="26" as="geometry" />
        </mxCell>
        <mxCell id="GD3txWQQ8H-0cnb2r7v--24" value="" style="line;strokeWidth=1;fillColor=none;align=left;verticalAlign=middle;spacingTop=-1;spacingLeft=3;spacingRight=3;rotatable=0;labelPosition=right;points=[];portConstraint=eastwest;strokeColor=inherit;" parent="GD3txWQQ8H-0cnb2r7v--22" vertex="1">
          <mxGeometry y="182" width="380" height="8" as="geometry" />
        </mxCell>
        <mxCell id="GD3txWQQ8H-0cnb2r7v--25" value="+ clustering_worker() : void" style="text;strokeColor=none;fillColor=none;align=left;verticalAlign=top;spacingLeft=4;spacingRight=4;overflow=hidden;rotatable=0;points=[[0,0.5],[1,0.5]];portConstraint=eastwest;whiteSpace=wrap;html=1;" parent="GD3txWQQ8H-0cnb2r7v--22" vertex="1">
          <mxGeometry y="190" width="380" height="26" as="geometry" />
        </mxCell>
        <mxCell id="TJTiLM4mvF0fIbGB1GxX-1" value="+ process_clustering(string, Dictionary) : void" style="text;strokeColor=none;fillColor=none;align=left;verticalAlign=top;spacingLeft=4;spacingRight=4;overflow=hidden;rotatable=0;points=[[0,0.5],[1,0.5]];portConstraint=eastwest;whiteSpace=wrap;html=1;" vertex="1" parent="GD3txWQQ8H-0cnb2r7v--22">
          <mxGeometry y="216" width="380" height="26" as="geometry" />
        </mxCell>
        <mxCell id="TJTiLM4mvF0fIbGB1GxX-2" value="+ cluster_data(Dictionary) : Dictionary" style="text;strokeColor=none;fillColor=none;align=left;verticalAlign=top;spacingLeft=4;spacingRight=4;overflow=hidden;rotatable=0;points=[[0,0.5],[1,0.5]];portConstraint=eastwest;whiteSpace=wrap;html=1;" vertex="1" parent="GD3txWQQ8H-0cnb2r7v--22">
          <mxGeometry y="242" width="380" height="26" as="geometry" />
        </mxCell>
        <mxCell id="TJTiLM4mvF0fIbGB1GxX-3" value="+ get_results(string) : JSONResponse" style="text;strokeColor=none;fillColor=none;align=left;verticalAlign=top;spacingLeft=4;spacingRight=4;overflow=hidden;rotatable=0;points=[[0,0.5],[1,0.5]];portConstraint=eastwest;whiteSpace=wrap;html=1;" vertex="1" parent="GD3txWQQ8H-0cnb2r7v--22">
          <mxGeometry y="268" width="380" height="26" as="geometry" />
        </mxCell>
        <mxCell id="TJTiLM4mvF0fIbGB1GxX-43" value="+ on_startup() : void" style="text;strokeColor=none;fillColor=none;align=left;verticalAlign=top;spacingLeft=4;spacingRight=4;overflow=hidden;rotatable=0;points=[[0,0.5],[1,0.5]];portConstraint=eastwest;whiteSpace=wrap;html=1;" vertex="1" parent="GD3txWQQ8H-0cnb2r7v--22">
          <mxGeometry y="294" width="380" height="26" as="geometry" />
        </mxCell>
        <mxCell id="TJTiLM4mvF0fIbGB1GxX-6" value="&lt;b&gt;IncrementalFAMD&lt;/b&gt;" style="swimlane;fontStyle=1;align=center;verticalAlign=top;childLayout=stackLayout;horizontal=1;startSize=26;horizontalStack=0;resizeParent=1;resizeParentMax=0;resizeLast=0;collapsible=1;marginBottom=0;whiteSpace=wrap;html=1;" vertex="1" parent="WIyWlLk6GJQsqaUBKTNV-1">
          <mxGeometry x="40" y="504" width="490" height="398" as="geometry" />
        </mxCell>
        <mxCell id="TJTiLM4mvF0fIbGB1GxX-7" value="- n_components: int" style="text;strokeColor=none;fillColor=none;align=left;verticalAlign=top;spacingLeft=4;spacingRight=4;overflow=hidden;rotatable=0;points=[[0,0.5],[1,0.5]];portConstraint=eastwest;whiteSpace=wrap;html=1;" vertex="1" parent="TJTiLM4mvF0fIbGB1GxX-6">
          <mxGeometry y="26" width="490" height="26" as="geometry" />
        </mxCell>
        <mxCell id="TJTiLM4mvF0fIbGB1GxX-8" value="&lt;p style=&quot;margin: 0px 0px 0px 4px;&quot;&gt;&lt;span style=&quot;background-color: transparent; color: light-dark(rgb(0, 0, 0), rgb(255, 255, 255));&quot;&gt;- batch_size: int&lt;/span&gt;&lt;/p&gt;&lt;div&gt;&lt;br&gt;&lt;/div&gt;" style="text;strokeColor=none;fillColor=none;align=left;verticalAlign=top;spacingLeft=4;spacingRight=4;overflow=hidden;rotatable=0;points=[[0,0.5],[1,0.5]];portConstraint=eastwest;whiteSpace=wrap;html=1;" vertex="1" parent="TJTiLM4mvF0fIbGB1GxX-6">
          <mxGeometry y="52" width="490" height="26" as="geometry" />
        </mxCell>
        <mxCell id="TJTiLM4mvF0fIbGB1GxX-9" value="- scaler: StandardScaler" style="text;strokeColor=none;fillColor=none;align=left;verticalAlign=top;spacingLeft=4;spacingRight=4;overflow=hidden;rotatable=0;points=[[0,0.5],[1,0.5]];portConstraint=eastwest;whiteSpace=wrap;html=1;" vertex="1" parent="TJTiLM4mvF0fIbGB1GxX-6">
          <mxGeometry y="78" width="490" height="26" as="geometry" />
        </mxCell>
        <mxCell id="TJTiLM4mvF0fIbGB1GxX-10" value="- encoder: OneHotEncoder" style="text;strokeColor=none;fillColor=none;align=left;verticalAlign=top;spacingLeft=4;spacingRight=4;overflow=hidden;rotatable=0;points=[[0,0.5],[1,0.5]];portConstraint=eastwest;whiteSpace=wrap;html=1;" vertex="1" parent="TJTiLM4mvF0fIbGB1GxX-6">
          <mxGeometry y="104" width="490" height="26" as="geometry" />
        </mxCell>
        <mxCell id="TJTiLM4mvF0fIbGB1GxX-16" value="- pca: IncrementalPCA" style="text;strokeColor=none;fillColor=none;align=left;verticalAlign=top;spacingLeft=4;spacingRight=4;overflow=hidden;rotatable=0;points=[[0,0.5],[1,0.5]];portConstraint=eastwest;whiteSpace=wrap;html=1;" vertex="1" parent="TJTiLM4mvF0fIbGB1GxX-6">
          <mxGeometry y="130" width="490" height="26" as="geometry" />
        </mxCell>
        <mxCell id="TJTiLM4mvF0fIbGB1GxX-17" value="- is_fitted: bool" style="text;strokeColor=none;fillColor=none;align=left;verticalAlign=top;spacingLeft=4;spacingRight=4;overflow=hidden;rotatable=0;points=[[0,0.5],[1,0.5]];portConstraint=eastwest;whiteSpace=wrap;html=1;" vertex="1" parent="TJTiLM4mvF0fIbGB1GxX-6">
          <mxGeometry y="156" width="490" height="26" as="geometry" />
        </mxCell>
        <mxCell id="TJTiLM4mvF0fIbGB1GxX-11" value="" style="line;strokeWidth=1;fillColor=none;align=left;verticalAlign=middle;spacingTop=-1;spacingLeft=3;spacingRight=3;rotatable=0;labelPosition=right;points=[];portConstraint=eastwest;strokeColor=inherit;" vertex="1" parent="TJTiLM4mvF0fIbGB1GxX-6">
          <mxGeometry y="182" width="490" height="8" as="geometry" />
        </mxCell>
        <mxCell id="TJTiLM4mvF0fIbGB1GxX-12" value="+ IncrementalFAMD(n_components, batch_size): IncrementalFAMD" style="text;strokeColor=none;fillColor=none;align=left;verticalAlign=top;spacingLeft=4;spacingRight=4;overflow=hidden;rotatable=0;points=[[0,0.5],[1,0.5]];portConstraint=eastwest;whiteSpace=wrap;html=1;" vertex="1" parent="TJTiLM4mvF0fIbGB1GxX-6">
          <mxGeometry y="190" width="490" height="26" as="geometry" />
        </mxCell>
        <mxCell id="TJTiLM4mvF0fIbGB1GxX-13" value="+ fit(data): void" style="text;strokeColor=none;fillColor=none;align=left;verticalAlign=top;spacingLeft=4;spacingRight=4;overflow=hidden;rotatable=0;points=[[0,0.5],[1,0.5]];portConstraint=eastwest;whiteSpace=wrap;html=1;" vertex="1" parent="TJTiLM4mvF0fIbGB1GxX-6">
          <mxGeometry y="216" width="490" height="26" as="geometry" />
        </mxCell>
        <mxCell id="TJTiLM4mvF0fIbGB1GxX-14" value="+ transform(data): Pandas Dataframe" style="text;strokeColor=none;fillColor=none;align=left;verticalAlign=top;spacingLeft=4;spacingRight=4;overflow=hidden;rotatable=0;points=[[0,0.5],[1,0.5]];portConstraint=eastwest;whiteSpace=wrap;html=1;" vertex="1" parent="TJTiLM4mvF0fIbGB1GxX-6">
          <mxGeometry y="242" width="490" height="26" as="geometry" />
        </mxCell>
        <mxCell id="TJTiLM4mvF0fIbGB1GxX-15" value="- _validate_data(data): void" style="text;strokeColor=none;fillColor=none;align=left;verticalAlign=top;spacingLeft=4;spacingRight=4;overflow=hidden;rotatable=0;points=[[0,0.5],[1,0.5]];portConstraint=eastwest;whiteSpace=wrap;html=1;" vertex="1" parent="TJTiLM4mvF0fIbGB1GxX-6">
          <mxGeometry y="268" width="490" height="26" as="geometry" />
        </mxCell>
        <mxCell id="TJTiLM4mvF0fIbGB1GxX-20" value="&lt;p style=&quot;margin: 0px 0px 0px 4px;&quot;&gt;- _dataframe_to_iterator(dataframe): iterator&lt;/p&gt;&lt;div&gt;&lt;br&gt;&lt;/div&gt;" style="text;strokeColor=none;fillColor=none;align=left;verticalAlign=top;spacingLeft=4;spacingRight=4;overflow=hidden;rotatable=0;points=[[0,0.5],[1,0.5]];portConstraint=eastwest;whiteSpace=wrap;html=1;" vertex="1" parent="TJTiLM4mvF0fIbGB1GxX-6">
          <mxGeometry y="294" width="490" height="26" as="geometry" />
        </mxCell>
        <mxCell id="TJTiLM4mvF0fIbGB1GxX-21" value="- _separate_data(data) : Pandas Datarame, Pandas Dataframe" style="text;strokeColor=none;fillColor=none;align=left;verticalAlign=top;spacingLeft=4;spacingRight=4;overflow=hidden;rotatable=0;points=[[0,0.5],[1,0.5]];portConstraint=eastwest;whiteSpace=wrap;html=1;" vertex="1" parent="TJTiLM4mvF0fIbGB1GxX-6">
          <mxGeometry y="320" width="490" height="26" as="geometry" />
        </mxCell>
        <mxCell id="TJTiLM4mvF0fIbGB1GxX-22" value="- _mca_transform(categorical_data): np.ndarray" style="text;strokeColor=none;fillColor=none;align=left;verticalAlign=top;spacingLeft=4;spacingRight=4;overflow=hidden;rotatable=0;points=[[0,0.5],[1,0.5]];portConstraint=eastwest;whiteSpace=wrap;html=1;" vertex="1" parent="TJTiLM4mvF0fIbGB1GxX-6">
          <mxGeometry y="346" width="490" height="26" as="geometry" />
        </mxCell>
        <mxCell id="TJTiLM4mvF0fIbGB1GxX-23" value="- _validate_data(data): void" style="text;strokeColor=none;fillColor=none;align=left;verticalAlign=top;spacingLeft=4;spacingRight=4;overflow=hidden;rotatable=0;points=[[0,0.5],[1,0.5]];portConstraint=eastwest;whiteSpace=wrap;html=1;" vertex="1" parent="TJTiLM4mvF0fIbGB1GxX-6">
          <mxGeometry y="372" width="490" height="26" as="geometry" />
        </mxCell>
        <mxCell id="TJTiLM4mvF0fIbGB1GxX-24" value="&lt;b&gt;Clustering&lt;/b&gt;&lt;div&gt;&lt;b&gt;&lt;br&gt;&lt;/b&gt;&lt;/div&gt;" style="swimlane;fontStyle=1;align=center;verticalAlign=top;childLayout=stackLayout;horizontal=1;startSize=26;horizontalStack=0;resizeParent=1;resizeParentMax=0;resizeLast=0;collapsible=1;marginBottom=0;whiteSpace=wrap;html=1;" vertex="1" parent="WIyWlLk6GJQsqaUBKTNV-1">
          <mxGeometry x="590" y="595" width="310" height="216" as="geometry" />
        </mxCell>
        <mxCell id="TJTiLM4mvF0fIbGB1GxX-25" value="- volume_based_path : path&lt;div&gt;&lt;br&gt;&lt;/div&gt;" style="text;strokeColor=none;fillColor=none;align=left;verticalAlign=top;spacingLeft=4;spacingRight=4;overflow=hidden;rotatable=0;points=[[0,0.5],[1,0.5]];portConstraint=eastwest;whiteSpace=wrap;html=1;" vertex="1" parent="TJTiLM4mvF0fIbGB1GxX-24">
          <mxGeometry y="26" width="310" height="26" as="geometry" />
        </mxCell>
        <mxCell id="TJTiLM4mvF0fIbGB1GxX-26" value="- logger : logger" style="text;strokeColor=none;fillColor=none;align=left;verticalAlign=top;spacingLeft=4;spacingRight=4;overflow=hidden;rotatable=0;points=[[0,0.5],[1,0.5]];portConstraint=eastwest;whiteSpace=wrap;html=1;" vertex="1" parent="TJTiLM4mvF0fIbGB1GxX-24">
          <mxGeometry y="52" width="310" height="26" as="geometry" />
        </mxCell>
        <mxCell id="TJTiLM4mvF0fIbGB1GxX-29" value="" style="line;strokeWidth=1;fillColor=none;align=left;verticalAlign=middle;spacingTop=-1;spacingLeft=3;spacingRight=3;rotatable=0;labelPosition=right;points=[];portConstraint=eastwest;strokeColor=inherit;" vertex="1" parent="TJTiLM4mvF0fIbGB1GxX-24">
          <mxGeometry y="78" width="310" height="8" as="geometry" />
        </mxCell>
        <mxCell id="TJTiLM4mvF0fIbGB1GxX-30" value="+ validate_algorithm(string) : void" style="text;strokeColor=none;fillColor=none;align=left;verticalAlign=top;spacingLeft=4;spacingRight=4;overflow=hidden;rotatable=0;points=[[0,0.5],[1,0.5]];portConstraint=eastwest;whiteSpace=wrap;html=1;" vertex="1" parent="TJTiLM4mvF0fIbGB1GxX-24">
          <mxGeometry y="86" width="310" height="26" as="geometry" />
        </mxCell>
        <mxCell id="TJTiLM4mvF0fIbGB1GxX-31" value="+ get_clustering_params() : Dictionary" style="text;strokeColor=none;fillColor=none;align=left;verticalAlign=top;spacingLeft=4;spacingRight=4;overflow=hidden;rotatable=0;points=[[0,0.5],[1,0.5]];portConstraint=eastwest;whiteSpace=wrap;html=1;" vertex="1" parent="TJTiLM4mvF0fIbGB1GxX-24">
          <mxGeometry y="112" width="310" height="26" as="geometry" />
        </mxCell>
        <mxCell id="TJTiLM4mvF0fIbGB1GxX-32" value="+ match_algorithm(string, Dictionary)&amp;nbsp; : clusters, string" style="text;strokeColor=none;fillColor=none;align=left;verticalAlign=top;spacingLeft=4;spacingRight=4;overflow=hidden;rotatable=0;points=[[0,0.5],[1,0.5]];portConstraint=eastwest;whiteSpace=wrap;html=1;" vertex="1" parent="TJTiLM4mvF0fIbGB1GxX-24">
          <mxGeometry y="138" width="310" height="26" as="geometry" />
        </mxCell>
        <mxCell id="TJTiLM4mvF0fIbGB1GxX-45" value="Sends Cluster" style="endArrow=open;endSize=12;dashed=1;html=1;rounded=0;" edge="1" parent="TJTiLM4mvF0fIbGB1GxX-24" target="GD3txWQQ8H-0cnb2r7v--22">
          <mxGeometry width="160" relative="1" as="geometry">
            <mxPoint x="310" y="155" as="sourcePoint" />
            <mxPoint x="470" y="155" as="targetPoint" />
          </mxGeometry>
        </mxCell>
        <mxCell id="TJTiLM4mvF0fIbGB1GxX-34" value="+ call_flag (bool, Dictionary, clusters, string, string)" style="text;strokeColor=none;fillColor=none;align=left;verticalAlign=top;spacingLeft=4;spacingRight=4;overflow=hidden;rotatable=0;points=[[0,0.5],[1,0.5]];portConstraint=eastwest;whiteSpace=wrap;html=1;" vertex="1" parent="TJTiLM4mvF0fIbGB1GxX-24">
          <mxGeometry y="164" width="310" height="26" as="geometry" />
        </mxCell>
        <mxCell id="TJTiLM4mvF0fIbGB1GxX-35" value="+ reduce_dimen(Dictionary): void" style="text;strokeColor=none;fillColor=none;align=left;verticalAlign=top;spacingLeft=4;spacingRight=4;overflow=hidden;rotatable=0;points=[[0,0.5],[1,0.5]];portConstraint=eastwest;whiteSpace=wrap;html=1;" vertex="1" parent="TJTiLM4mvF0fIbGB1GxX-24">
          <mxGeometry y="190" width="310" height="26" as="geometry" />
        </mxCell>
        <mxCell id="TJTiLM4mvF0fIbGB1GxX-44" value="Sends Job" style="endArrow=open;endSize=12;dashed=1;html=1;rounded=0;entryX=1;entryY=0.083;entryDx=0;entryDy=0;entryPerimeter=0;exitX=0;exitY=0.5;exitDx=0;exitDy=0;" edge="1" parent="WIyWlLk6GJQsqaUBKTNV-1" source="TJTiLM4mvF0fIbGB1GxX-0" target="TJTiLM4mvF0fIbGB1GxX-24">
          <mxGeometry width="160" relative="1" as="geometry">
            <mxPoint x="990" y="620" as="sourcePoint" />
            <mxPoint x="1150" y="620" as="targetPoint" />
          </mxGeometry>
        </mxCell>
        <mxCell id="TJTiLM4mvF0fIbGB1GxX-46" value="Sends Report" style="endArrow=open;endSize=12;dashed=1;html=1;rounded=0;" edge="1" parent="WIyWlLk6GJQsqaUBKTNV-1" source="GD3txWQQ8H-0cnb2r7v--22" target="dsEDK1jfOFi2LN3uVr38-27">
          <mxGeometry width="160" relative="1" as="geometry">
            <mxPoint x="1110" y="520" as="sourcePoint" />
            <mxPoint x="1270" y="520" as="targetPoint" />
          </mxGeometry>
        </mxCell>
      </root>
    </mxGraphModel>
  </diagram>
</mxfile>
